<?xml version="1.0" encoding="UTF-8" standalone="no"?>
<!DOCTYPE svg PUBLIC "-//W3C//DTD SVG 1.1//EN" "http://www.w3.org/Graphics/SVG/1.1/DTD/svg11.dtd">
<svg width="100%" height="100%" viewBox="0 0 48 48" version="1.1" xmlns="http://www.w3.org/2000/svg" xmlns:xlink="http://www.w3.org/1999/xlink" xml:space="preserve" xmlns:serif="http://www.serif.com/" style="fill-rule:evenodd;clip-rule:evenodd;stroke-linejoin:round;stroke-miterlimit:2;">
    <g transform="matrix(1,0,0,1,-1207,-776)">
        <g id="Favicon-Green-Blue-48px" serif:id="Favicon Green-Blue 48px" transform="matrix(0.192,0,0,0.192,1008.472,620.672)">
            <rect x="1034" y="809" width="250" height="250" style="fill:none;"/>
            <g transform="matrix(2.662037,0,0,2.662037,-158.708333,-2349.622685)">
                <path d="M484.972,1227.023C482.592,1223.067 480.347,1218.948 478.74,1215.169C477.416,1212.055 476.5,1209.225 476.5,1207C476.5,1196.79 484.79,1188.5 495,1188.5C505.21,1188.5 513.5,1196.79 513.5,1207C513.5,1209.225 512.584,1212.055 511.26,1215.169C509.653,1218.948 507.408,1223.067 505.028,1227.023C501.014,1221.095 497.778,1216.871 497.778,1216.871C497.115,1216.007 496.089,1215.5 495,1215.5C493.911,1215.5 492.885,1216.007 492.222,1216.871C492.222,1216.871 488.986,1221.095 484.972,1227.023Z" style="fill:rgb(164,227,142);"/>
            </g>
            <g transform="matrix(2.662037,0,0,2.662037,-158.708333,-2349.622685)">
                <path d="M502.264,1235.53C504.663,1239.27 507.112,1243.361 509.131,1247.312C511.603,1252.149 513.5,1256.71 513.5,1260C513.5,1270.21 505.21,1278.5 495,1278.5C484.79,1278.5 476.5,1270.21 476.5,1260C476.5,1256.71 478.397,1252.149 480.869,1247.312C482.888,1243.361 485.337,1239.27 487.736,1235.53C487.797,1235.44 487.855,1235.349 487.911,1235.257C490.565,1231.135 493.145,1227.456 495,1224.887C496.855,1227.456 499.435,1231.135 502.089,1235.257C502.145,1235.349 502.203,1235.44 502.264,1235.53Z" style="fill:rgb(121,216,243);"/>
            </g>
        </g>
    </g>
</svg>
