<?xml version="1.0" encoding="UTF-8" standalone="no"?>
<!DOCTYPE svg PUBLIC "-//W3C//DTD SVG 1.1//EN" "http://www.w3.org/Graphics/SVG/1.1/DTD/svg11.dtd">
<svg width="100%" height="100%" viewBox="0 0 250 125" version="1.1" xmlns="http://www.w3.org/2000/svg" xmlns:xlink="http://www.w3.org/1999/xlink" xml:space="preserve" xmlns:serif="http://www.serif.com/" style="fill-rule:evenodd;clip-rule:evenodd;stroke-linejoin:round;stroke-miterlimit:2;">
    <g transform="matrix(1,0,0,1,-1549,-509)">
        <g id="Logo-Green-Blue-250x125" serif:id="Logo Green-Blue 250x125" transform="matrix(0.961538,0,0,1,85.538462,0)">
            <rect x="1522" y="509" width="260" height="125" style="fill:none;"/>
            <g transform="matrix(1.791472,0,0,1.791472,-1246.746976,-452.326421)">
                <g transform="matrix(0.531556,0,0,0.511111,1301.52,-58.955556)">
                    <path d="M484.972,1227.023C482.592,1223.067 480.347,1218.948 478.74,1215.169C477.416,1212.055 476.5,1209.225 476.5,1207C476.5,1196.79 484.79,1188.5 495,1188.5C505.21,1188.5 513.5,1196.79 513.5,1207C513.5,1209.225 512.584,1212.055 511.26,1215.169C509.653,1218.948 507.408,1223.067 505.028,1227.023C501.014,1221.095 497.778,1216.871 497.778,1216.871C497.115,1216.007 496.089,1215.5 495,1215.5C493.911,1215.5 492.885,1216.007 492.222,1216.871C492.222,1216.871 488.986,1221.095 484.972,1227.023Z" style="fill:rgb(164,227,142);"/>
                </g>
                <g transform="matrix(0.531556,0,0,0.511111,1301.52,-58.955556)">
                    <path d="M502.264,1235.53C504.663,1239.27 507.112,1243.361 509.131,1247.312C511.603,1252.149 513.5,1256.71 513.5,1260C513.5,1270.21 505.21,1278.5 495,1278.5C484.79,1278.5 476.5,1270.21 476.5,1260C476.5,1256.71 478.397,1252.149 480.869,1247.312C482.888,1243.361 485.337,1239.27 487.736,1235.53C487.797,1235.44 487.855,1235.349 487.911,1235.257C490.565,1231.135 493.145,1227.456 495,1224.887C496.855,1227.456 499.435,1231.135 502.089,1235.257C502.145,1235.349 502.203,1235.44 502.264,1235.53Z" style="fill:rgb(121,216,243);"/>
                </g>
            </g>
            <g transform="matrix(1.298546,0,0,1.248602,-537.516787,-181.59229)">
                <g transform="matrix(48,0,0,48,1775.81375,617)">
                </g>
                <text x="1634px" y="617px" style="font-family:'Inter-Black', 'Inter';font-weight:900;font-size:48px;fill:rgb(121,216,243);">p<tspan x="1665.944px 1681.108px 1713.719px 1745.008px 1761.611px " y="617px 617px 617px 617px 617px ">luvii</tspan></text>
            </g>
        </g>
    </g>
</svg>
